<svg width="743" height="304" viewBox="0 0 743 304" fill="none" xmlns="http://www.w3.org/2000/svg">
<path d="M383.108 202.35C375.728 202.35 368.933 201.135 362.723 198.705C356.513 196.275 351.113 192.9 346.523 188.58C341.933 184.17 338.378 179.04 335.858 173.19C333.338 167.25 332.078 160.77 332.078 153.75C332.078 146.73 333.338 140.295 335.858 134.445C338.378 128.505 341.933 123.375 346.523 119.055C351.113 114.645 356.513 111.225 362.723 108.795C368.933 106.365 375.683 105.15 382.973 105.15C390.353 105.15 397.103 106.365 403.223 108.795C409.433 111.225 414.833 114.6 419.423 118.92C424.013 123.24 427.568 128.37 430.088 134.31C432.608 140.25 433.868 146.73 433.868 153.75C433.868 160.77 432.608 167.25 430.088 173.19C427.568 179.13 424.013 184.26 419.423 188.58C414.833 192.9 409.433 196.275 403.223 198.705C397.103 201.135 390.398 202.35 383.108 202.35ZM413.888 221.655C410.558 221.655 407.318 221.25 404.168 220.44C401.108 219.72 398.048 218.46 394.988 216.66C392.018 214.95 388.913 212.655 385.673 209.775C382.433 206.985 378.878 203.52 375.008 199.38L393.638 194.52C396.158 197.85 398.543 200.505 400.793 202.485C403.133 204.555 405.383 206.04 407.543 206.94C409.703 207.84 411.953 208.29 414.293 208.29C420.503 208.29 425.903 205.77 430.493 200.73L438.593 210.45C432.293 217.92 424.058 221.655 413.888 221.655ZM382.973 186.96C387.743 186.96 392.153 186.15 396.203 184.53C400.253 182.91 403.763 180.615 406.733 177.645C409.703 174.585 411.998 171.03 413.618 166.98C415.328 162.93 416.183 158.52 416.183 153.75C416.183 148.89 415.328 144.48 413.618 140.52C411.998 136.47 409.703 132.96 406.733 129.99C403.763 126.93 400.253 124.59 396.203 122.97C392.153 121.35 387.743 120.54 382.973 120.54C378.203 120.54 373.793 121.35 369.743 122.97C365.693 124.59 362.183 126.93 359.213 129.99C356.243 132.96 353.903 136.47 352.193 140.52C350.573 144.48 349.763 148.89 349.763 153.75C349.763 158.52 350.573 162.93 352.193 166.98C353.903 171.03 356.243 174.585 359.213 177.645C362.183 180.615 365.693 182.91 369.743 184.53C373.793 186.15 378.203 186.96 382.973 186.96ZM466.781 201L440.321 128.91H456.251L478.931 192.495H471.371L495.131 128.91H509.306L532.391 192.495H524.966L548.321 128.91H563.306L536.711 201H520.511L499.451 144.705H504.446L482.981 201H466.781ZM574.908 201V128.91H591.783V201H574.908ZM583.413 117.03C580.263 117.03 577.653 116.04 575.583 114.06C573.603 112.08 572.613 109.695 572.613 106.905C572.613 104.025 573.603 101.64 575.583 99.75C577.653 97.77 580.263 96.78 583.413 96.78C586.563 96.78 589.128 97.725 591.108 99.615C593.178 101.415 594.213 103.71 594.213 106.5C594.213 109.47 593.223 111.99 591.243 114.06C589.263 116.04 586.653 117.03 583.413 117.03Z" fill="#41474F"/>
<path fill-rule="evenodd" clip-rule="evenodd" d="M265.065 196.594C266.802 198.33 269.68 198.143 271.042 196.099C278.597 184.762 283 171.146 283 156.5C283 117.012 250.988 85 211.5 85C172.012 85 140 117.012 140 156.5C140 195.988 172.012 228 211.5 228C226.289 228 240.028 223.51 251.431 215.819C253.46 214.451 253.639 211.585 251.908 209.854L234.362 192.309C230.777 188.724 230.777 182.911 234.362 179.326L234.589 179.1C238.174 175.515 243.987 175.515 247.572 179.1L265.065 196.594ZM209.675 134.363C210.435 133.142 212.212 133.142 212.973 134.363L216.732 140.401C217.172 141.107 218.011 141.454 218.821 141.266L225.749 139.655C227.15 139.329 228.406 140.586 228.081 141.987L226.469 148.915C226.281 149.724 226.629 150.564 227.335 151.003L233.373 154.763C234.594 155.523 234.594 157.3 233.373 158.061L227.335 161.82C226.629 162.26 226.281 163.099 226.469 163.909L228.081 170.837C228.406 172.238 227.15 173.494 225.749 173.168L218.821 171.557C218.011 171.369 217.172 171.717 216.732 172.422L212.973 178.461C212.212 179.681 210.435 179.681 209.675 178.461L205.915 172.422C205.476 171.717 204.636 171.369 203.827 171.557L196.899 173.168C195.498 173.494 194.241 172.238 194.567 170.837L196.178 163.909C196.366 163.099 196.019 162.26 195.313 161.82L189.275 158.061C188.054 157.3 188.054 155.523 189.275 154.763L195.313 151.003C196.019 150.564 196.366 149.724 196.178 148.915L194.567 141.987C194.241 140.586 195.498 139.329 196.899 139.655L203.827 141.266C204.636 141.454 205.476 141.107 205.915 140.401L209.675 134.363ZM211.499 108.657C213.352 108.657 214.853 110.159 214.853 112.012V115.895C214.853 117.748 213.352 119.25 211.499 119.25C209.646 119.25 208.145 117.748 208.145 115.895V112.012C208.145 110.159 209.646 108.657 211.499 108.657ZM183.105 123.293C181.795 121.983 179.671 121.983 178.361 123.293C177.051 124.603 177.051 126.727 178.361 128.037L181.108 130.783C182.418 132.093 184.542 132.093 185.851 130.783C187.161 129.473 187.161 127.349 185.851 126.039L183.105 123.293ZM244.929 123.285C246.239 124.595 246.239 126.719 244.929 128.029L242.183 130.775C240.873 132.085 238.749 132.085 237.439 130.775C236.13 129.465 236.13 127.341 237.439 126.032L240.186 123.285C241.496 121.975 243.62 121.975 244.929 123.285ZM185.724 187.144C187.034 185.834 187.034 183.71 185.724 182.4C184.414 181.09 182.291 181.09 180.981 182.4L178.234 185.147C176.924 186.457 176.924 188.58 178.234 189.891C179.544 191.2 181.668 191.2 182.978 189.891L185.724 187.144ZM248.773 156.5C248.773 154.647 250.275 153.146 252.128 153.146H256.012C257.864 153.146 259.366 154.647 259.366 156.5C259.366 158.352 257.864 159.854 256.012 159.854H252.128C250.275 159.854 248.773 158.352 248.773 156.5ZM167.011 153.146C165.158 153.146 163.656 154.647 163.656 156.5C163.656 158.352 165.158 159.854 167.011 159.854H170.895C172.747 159.854 174.249 158.352 174.249 156.5C174.249 154.647 172.747 153.146 170.895 153.146H167.011ZM211.499 193.751C213.352 193.751 214.853 195.253 214.853 197.105V200.989C214.853 202.842 213.352 204.343 211.499 204.343C209.646 204.343 208.145 202.842 208.145 200.989V197.105C208.145 195.253 209.646 193.751 211.499 193.751Z" fill="url(#paint0_linear_315_134)"/>
<defs>
<linearGradient id="paint0_linear_315_134" x1="258.673" y1="100.102" x2="160.803" y2="208.133" gradientUnits="userSpaceOnUse">
<stop stop-color="#00DCA7"/>
<stop offset="1" stop-color="#27D0E7"/>
</linearGradient>
</defs>
</svg>
